<svg width="39" height="15" viewBox="0 0 39 15" fill="none" xmlns="http://www.w3.org/2000/svg">
<path d="M0.213848 1.03015C0.108356 0.706963 0.349201 0.375 0.689167 0.375H2.24873C2.47017 0.375 2.66524 0.520654 2.72814 0.732972L5.80465 11.1175C5.81782 11.1619 5.85866 11.1924 5.90501 11.1924C5.95092 11.1924 5.99148 11.1625 6.00502 11.1186L9.21412 0.727462C9.27883 0.517916 9.47254 0.375 9.69186 0.375H11.5567C11.7761 0.375 11.9698 0.517916 12.0345 0.727461L15.2464 11.1278C15.2583 11.1662 15.2938 11.1924 15.334 11.1924C15.3745 11.1924 15.4103 11.1658 15.4218 11.1269L18.5201 0.732182C18.5832 0.52026 18.7781 0.375 18.9992 0.375H20.5585C20.8988 0.375 21.1396 0.707442 21.0336 1.03075L16.7777 14.0143C16.7103 14.2196 16.5187 14.3585 16.3025 14.3585H14.5013C14.2856 14.3585 14.0941 14.2201 14.0265 14.0153L10.7009 3.94275C10.6899 3.90969 10.6591 3.88737 10.6242 3.88737C10.5895 3.88737 10.5586 3.90963 10.5477 3.94262L7.20304 14.0161C7.13516 14.2205 6.94395 14.3585 6.72851 14.3585H4.92713C4.71076 14.3585 4.51894 14.2193 4.45181 14.0137L0.213848 1.03015Z" fill="#359D66"/>
<path d="M24.7252 13.8585C24.7252 14.1347 24.5013 14.3585 24.2252 14.3585H22.7196C22.4435 14.3585 22.2196 14.1347 22.2196 13.8585V0.874999C22.2196 0.598857 22.4435 0.375 22.7196 0.375H24.2252C24.5013 0.375 24.7252 0.598858 24.7252 0.875V13.8585Z" fill="#359D66"/>
<path d="M25.6964 0.875C25.6964 0.598858 25.9203 0.375 26.1964 0.375H37.9766C38.2528 0.375 38.4766 0.598858 38.4766 0.875V1.70539C38.4766 1.98153 38.2528 2.20539 37.9766 2.20539H33.849C33.5729 2.20539 33.349 2.42925 33.349 2.70539V13.875C33.349 14.1511 33.1252 14.375 32.849 14.375H31.3435C31.0673 14.375 30.8435 14.1511 30.8435 13.875V2.70539C30.8435 2.42925 30.6196 2.20539 30.3435 2.20539H26.1964C25.9203 2.20539 25.6964 1.98153 25.6964 1.70539V0.875Z" fill="#359D66"/>
</svg>
