<svg width="25" height="26" viewBox="0 0 25 26" fill="none" xmlns="http://www.w3.org/2000/svg">
<g clip-path="url(#clip0_116_392)">
<path d="M19.255 9.61102C19.255 14.8029 14.8838 18.396 11.2651 19.0933C10.5376 19.2346 9.97251 19.2315 9.70087 19.222C5.83238 19.0933 0.146729 15.6634 0.146729 9.61102C0.146729 4.30297 4.42424 0 9.70087 0C14.9775 0 19.255 4.30297 19.255 9.61102Z" fill="#379D66"/>
<path d="M6.74406 13.9676L7.82749 17.4947C8.25212 18.8767 8.39886 20.5822 8.14596 21.0376C8.12723 21.0376 8.096 21.0376 8.05854 21.0376C6.0759 20.9057 4.50227 19.15 4.20878 18.7982C3.85596 18.3773 3.31893 18.1732 2.77878 18.258C2.23551 18.3396 1.78278 18.6946 1.57046 19.2002L0.193544 22.4447C-0.0281366 22.9693 -0.0718484 23.566 0.137344 24.0968C0.249745 24.3795 0.427714 24.6622 0.718085 24.8632C1.00846 25.0642 1.28946 25.105 1.43308 25.127C2.50402 25.2778 3.73107 24.5083 4.09014 23.4498C4.18693 23.1671 4.23064 22.8845 4.24 22.6112C5.21415 23.2519 6.44745 23.811 7.8712 23.9052C8.89843 23.9743 9.77891 23.6006 10.3596 22.8593C10.981 22.0647 11.1527 20.9528 11.1215 19.8755L10.1067 13.5059L6.74406 13.9707V13.9676Z" fill="#379D66"/>
<path d="M11.7334 20.2838L21.044 25.7709L21.1283 25.818C21.3687 25.9405 21.631 26.0033 21.8933 26.0033C22.1025 26.0033 22.3117 25.9656 22.5115 25.8871C22.9611 25.7112 23.317 25.3469 23.4856 24.8883L24.8376 21.1978C25.0874 20.5194 25.0593 19.7436 24.6784 19.128C24.5503 18.9238 24.3817 18.7259 24.1601 18.5563C24.0695 18.4872 23.6917 18.214 23.1391 18.1417C21.9932 17.9941 20.6662 18.7699 20.2635 19.9571C20.0636 20.5476 20.0511 21.1413 20.1792 21.6658L6.99695 13.8984L8.1678 17.7146" fill="#379D66"/>
</g>
<defs>
<clipPath id="clip0_116_392">
<rect width="25" height="26" fill="white"/>
</clipPath>
</defs>
</svg>
